<svg xmlns="http://www.w3.org/2000/svg" width="160.62" height="35" viewBox="0 0 160.62 35"><rect class="svg__rect" x="0" y="0" width="108.76" height="35" fill="#F9A2D4"/><rect class="svg__rect" x="106.76" y="0" width="53.86" height="35" fill="#9854FF"/><path class="svg__text" d="M15.70 22L14.22 22L14.22 13.47L17.48 13.47Q18.91 13.47 19.75 14.21Q20.59 14.96 20.59 16.18L20.59 16.18Q20.59 17.44 19.77 18.13Q18.95 18.83 17.46 18.83L17.46 18.83L15.70 18.83L15.70 22ZM15.70 14.66L15.70 17.64L17.48 17.64Q18.27 17.64 18.69 17.27Q19.10 16.90 19.10 16.19L19.10 16.19Q19.10 15.50 18.68 15.09Q18.26 14.68 17.52 14.66L17.52 14.66L15.70 14.66ZM30.23 22L24.88 22L24.88 13.47L26.36 13.47L26.36 20.82L30.23 20.82L30.23 22ZM35.14 22L33.59 22L36.82 13.47L38.15 13.47L41.38 22L39.83 22L39.13 20.01L35.83 20.01L35.14 22ZM37.48 15.28L36.24 18.82L38.72 18.82L37.48 15.28ZM47.01 14.66L44.38 14.66L44.38 13.47L51.14 13.47L51.14 14.66L48.48 14.66L48.48 22L47.01 22L47.01 14.66ZM56.38 22L54.90 22L54.90 13.47L60.32 13.47L60.32 14.66L56.38 14.66L56.38 17.20L59.81 17.20L59.81 18.38L56.38 18.38L56.38 22ZM64.21 18.00L64.21 18.00L64.21 17.52Q64.21 16.28 64.65 15.32Q65.09 14.37 65.90 13.86Q66.71 13.35 67.75 13.35Q68.79 13.35 69.60 13.85Q70.40 14.35 70.84 15.29Q71.28 16.23 71.29 17.48L71.29 17.48L71.29 17.96Q71.29 19.21 70.85 20.16Q70.42 21.10 69.61 21.61Q68.81 22.12 67.76 22.12L67.76 22.12Q66.72 22.12 65.91 21.61Q65.10 21.10 64.66 20.17Q64.22 19.23 64.21 18.00ZM65.69 17.46L65.69 17.96Q65.69 19.36 66.24 20.13Q66.79 20.90 67.76 20.90L67.76 20.90Q68.74 20.90 69.27 20.15Q69.81 19.40 69.81 17.96L69.81 17.96L69.81 17.51Q69.81 16.09 69.27 15.34Q68.73 14.58 67.75 14.58L67.75 14.58Q66.79 14.58 66.25 15.33Q65.70 16.09 65.69 17.46L65.69 17.46ZM77.23 22L75.75 22L75.75 13.47L78.75 13.47Q80.23 13.47 81.03 14.13Q81.83 14.79 81.83 16.05L81.83 16.05Q81.83 16.90 81.42 17.48Q81.01 18.06 80.27 18.37L80.27 18.37L82.19 21.92L82.19 22L80.60 22L78.89 18.71L77.23 18.71L77.23 22ZM77.23 14.66L77.23 17.52L78.76 17.52Q79.51 17.52 79.93 17.15Q80.35 16.77 80.35 16.11L80.35 16.11Q80.35 15.43 79.96 15.05Q79.57 14.68 78.80 14.66L78.80 14.66L77.23 14.66ZM87.71 22L86.23 22L86.23 13.47L88.15 13.47L90.61 20.01L93.07 13.47L94.98 13.47L94.98 22L93.51 22L93.51 19.19L93.65 15.43L91.13 22L90.07 22L87.56 15.43L87.71 19.19L87.71 22Z" fill="#FFFFFF"/><path class="svg__text" d="M123.33 22L120.95 22L120.95 13.60L123.33 13.60L123.33 22ZM128.07 17.80L128.07 17.80Q128.07 16.55 128.68 15.55Q129.28 14.56 130.34 14.00Q131.41 13.43 132.74 13.43L132.74 13.43Q134.07 13.43 135.13 14.00Q136.19 14.56 136.80 15.55Q137.41 16.55 137.41 17.80L137.41 17.80Q137.41 19.05 136.80 20.04Q136.19 21.04 135.13 21.60Q134.07 22.17 132.74 22.17L132.74 22.17Q131.41 22.17 130.34 21.60Q129.28 21.04 128.68 20.04Q128.07 19.05 128.07 17.80ZM130.47 17.80L130.47 17.80Q130.47 18.51 130.77 19.05Q131.07 19.60 131.59 19.90Q132.10 20.20 132.74 20.20L132.74 20.20Q133.38 20.20 133.89 19.90Q134.41 19.60 134.71 19.05Q135.00 18.51 135.00 17.80L135.00 17.80Q135.00 17.09 134.71 16.54Q134.41 16 133.89 15.70Q133.38 15.40 132.74 15.40L132.74 15.40Q132.10 15.40 131.59 15.70Q131.07 16 130.77 16.54Q130.47 17.09 130.47 17.80ZM141.55 21.24L141.55 21.24L142.33 19.49Q142.89 19.86 143.64 20.09Q144.38 20.32 145.10 20.32L145.10 20.32Q146.47 20.32 146.47 19.64L146.47 19.64Q146.47 19.28 146.08 19.11Q145.69 18.93 144.82 18.74L144.82 18.74Q143.88 18.53 143.24 18.30Q142.60 18.06 142.15 17.55Q141.70 17.03 141.70 16.16L141.70 16.16Q141.70 15.39 142.11 14.77Q142.53 14.15 143.37 13.79Q144.20 13.43 145.41 13.43L145.41 13.43Q146.24 13.43 147.04 13.62Q147.85 13.80 148.46 14.17L148.46 14.17L147.73 15.93Q146.53 15.28 145.40 15.28L145.40 15.28Q144.69 15.28 144.37 15.49Q144.05 15.70 144.05 16.04L144.05 16.04Q144.05 16.37 144.43 16.54Q144.81 16.71 145.66 16.89L145.66 16.89Q146.62 17.10 147.25 17.33Q147.88 17.56 148.35 18.07Q148.81 18.58 148.81 19.46L148.81 19.46Q148.81 20.21 148.39 20.83Q147.97 21.44 147.13 21.80Q146.29 22.17 145.09 22.17L145.09 22.17Q144.07 22.17 143.11 21.92Q142.15 21.67 141.55 21.24Z" fill="#FFFFFF" x="119.76"/></svg>