<svg xmlns="http://www.w3.org/2000/svg" width="200.03" height="35" viewBox="0 0 200.03 35"><rect class="svg__rect" x="0" y="0" width="65.06" height="35" fill="#8FC965"/><rect class="svg__rect" x="63.06" y="0" width="136.97" height="35" fill="#419B5A"/><path class="svg__text" d="M16.25 14.66L13.61 14.66L13.61 13.47L20.38 13.47L20.38 14.66L17.72 14.66L17.72 22L16.25 22L16.25 14.66ZM26.18 18.86L23.31 13.47L24.96 13.47L26.92 17.51L28.88 13.47L30.52 13.47L27.66 18.86L27.66 22L26.18 22L26.18 18.86ZM35.92 22L34.44 22L34.44 13.47L37.70 13.47Q39.13 13.47 39.97 14.21Q40.81 14.96 40.81 16.18L40.81 16.18Q40.81 17.44 39.99 18.13Q39.17 18.83 37.68 18.83L37.68 18.83L35.92 18.83L35.92 22ZM35.92 14.66L35.92 17.64L37.70 17.64Q38.49 17.64 38.91 17.27Q39.32 16.90 39.32 16.19L39.32 16.19Q39.32 15.50 38.90 15.09Q38.48 14.68 37.74 14.66L37.74 14.66L35.92 14.66ZM50.67 22L45.10 22L45.10 13.47L50.63 13.47L50.63 14.66L46.58 14.66L46.58 17.02L50.08 17.02L50.08 18.19L46.58 18.19L46.58 20.82L50.67 20.82L50.67 22Z" fill="#FFFFFF"/><path class="svg__text" d="M79.45 22L77.25 22L77.25 13.60L79.20 13.60L82.16 18.45L85.04 13.60L86.99 13.60L87.02 22L84.84 22L84.81 17.55L82.65 21.17L81.60 21.17L79.45 17.67L79.45 22ZM91.75 17.80L91.75 17.80Q91.75 16.55 92.35 15.55Q92.96 14.56 94.02 14.00Q95.08 13.43 96.41 13.43L96.41 13.43Q97.74 13.43 98.81 14.00Q99.87 14.56 100.48 15.55Q101.08 16.55 101.08 17.80L101.08 17.80Q101.08 19.05 100.48 20.04Q99.87 21.04 98.81 21.60Q97.75 22.17 96.41 22.17L96.41 22.17Q95.08 22.17 94.02 21.60Q92.96 21.04 92.35 20.04Q91.75 19.05 91.75 17.80ZM94.15 17.80L94.15 17.80Q94.15 18.51 94.45 19.05Q94.75 19.60 95.27 19.90Q95.78 20.20 96.41 20.20L96.41 20.20Q97.05 20.20 97.57 19.90Q98.08 19.60 98.38 19.05Q98.68 18.51 98.68 17.80L98.68 17.80Q98.68 17.09 98.38 16.54Q98.08 16 97.57 15.70Q97.05 15.40 96.41 15.40L96.41 15.40Q95.78 15.40 95.26 15.70Q94.75 16 94.45 16.54Q94.15 17.09 94.15 17.80ZM110.35 22L105.81 22L105.81 13.60L110.11 13.60Q111.72 13.60 112.56 14.19Q113.40 14.79 113.40 15.79L113.40 15.79Q113.40 16.39 113.10 16.87Q112.81 17.34 112.27 17.62L112.27 17.62Q112.99 17.87 113.40 18.41Q113.80 18.94 113.80 19.70L113.80 19.70Q113.80 20.80 112.92 21.40Q112.03 22 110.35 22L110.35 22ZM108.17 18.58L108.17 20.28L110.16 20.28Q111.41 20.28 111.41 19.43L111.41 19.43Q111.41 18.58 110.16 18.58L110.16 18.58L108.17 18.58ZM108.17 15.31L108.17 16.94L109.80 16.94Q111.00 16.94 111.00 16.12L111.00 16.12Q111.00 15.31 109.80 15.31L109.80 15.31L108.17 15.31ZM120.90 22L118.52 22L118.52 13.60L120.90 13.60L120.90 22ZM132.46 22L126.07 22L126.07 13.60L128.45 13.60L128.45 20.11L132.46 20.11L132.46 22ZM143.62 22L136.88 22L136.88 13.60L143.47 13.60L143.47 15.44L139.23 15.44L139.23 16.85L142.97 16.85L142.97 18.63L139.23 18.63L139.23 20.17L143.62 20.17L143.62 22ZM156.82 22L154.39 22L158.10 13.60L160.45 13.60L164.16 22L161.69 22L161.03 20.37L157.48 20.37L156.82 22ZM159.26 15.93L158.17 18.61L160.33 18.61L159.26 15.93ZM170.69 22L168.31 22L168.31 13.60L172.16 13.60Q173.29 13.60 174.14 13.98Q174.98 14.35 175.43 15.06Q175.89 15.76 175.89 16.71L175.89 16.71Q175.89 17.66 175.43 18.35Q174.98 19.05 174.14 19.42Q173.29 19.80 172.16 19.80L172.16 19.80L170.69 19.80L170.69 22ZM170.69 15.47L170.69 17.93L172.01 17.93Q172.74 17.93 173.12 17.61Q173.49 17.29 173.49 16.71L173.49 16.71Q173.49 16.12 173.12 15.80Q172.74 15.47 172.01 15.47L172.01 15.47L170.69 15.47ZM183.02 22L180.64 22L180.64 13.60L184.49 13.60Q185.62 13.60 186.46 13.98Q187.30 14.35 187.76 15.06Q188.22 15.76 188.22 16.71L188.22 16.71Q188.22 17.66 187.76 18.35Q187.30 19.05 186.46 19.42Q185.62 19.80 184.49 19.80L184.49 19.80L183.02 19.80L183.02 22ZM183.02 15.47L183.02 17.93L184.34 17.93Q185.07 17.93 185.44 17.61Q185.82 17.29 185.82 16.71L185.82 16.71Q185.82 16.12 185.44 15.80Q185.07 15.47 184.34 15.47L184.34 15.47L183.02 15.47Z" fill="#FFFFFF" x="76.06"/></svg>